<svg width="32" height="33" viewBox="0 0 32 33" fill="none" xmlns="http://www.w3.org/2000/svg">
<path d="M8.00008 19.1667H18.6667V16.5001H8.00008V19.1667ZM8.00008 15.1667H24.0001V12.5001H8.00008V15.1667ZM8.00008 11.1667H24.0001V8.50008H8.00008V11.1667ZM2.66675 29.8334V5.83341C2.66675 5.10008 2.92786 4.4723 3.45008 3.95008C3.9723 3.42786 4.60008 3.16675 5.33341 3.16675H26.6667C27.4001 3.16675 28.0279 3.42786 28.5501 3.95008C29.0723 4.4723 29.3334 5.10008 29.3334 5.83341V21.8334C29.3334 22.5667 29.0723 23.1945 28.5501 23.7167C28.0279 24.239 27.4001 24.5001 26.6667 24.5001H8.00008L2.66675 29.8334ZM6.86675 21.8334H26.6667V5.83341H5.33341V23.3334L6.86675 21.8334Z" fill="#319163"/>
</svg>
