<svg width="34" height="35" viewBox="0 0 34 35" fill="none" xmlns="http://www.w3.org/2000/svg">
<path d="M16.9999 30.25L14.9458 28.4083C12.561 26.2597 10.5895 24.4062 9.03117 22.8479C7.47284 21.2896 6.23325 19.8906 5.31242 18.651C4.39159 17.4114 3.74818 16.2722 3.38221 15.2333C3.01624 14.1944 2.83325 13.1319 2.83325 12.0458C2.83325 9.82637 3.577 7.9729 5.0645 6.4854C6.552 4.9979 8.40547 4.25415 10.6249 4.25415C11.8527 4.25415 13.0214 4.51387 14.1312 5.03332C15.2409 5.55276 16.1971 6.28471 16.9999 7.22915C17.8027 6.28471 18.7589 5.55276 19.8687 5.03332C20.9784 4.51387 22.1471 4.25415 23.3749 4.25415C25.5944 4.25415 27.4478 4.9979 28.9353 6.4854C30.4228 7.9729 31.1666 9.82637 31.1666 12.0458C31.1666 13.1319 30.9836 14.1944 30.6176 15.2333C30.2517 16.2722 29.6083 17.4114 28.6874 18.651C27.7666 19.8906 26.527 21.2896 24.9687 22.8479C23.4103 24.4062 21.4388 26.2597 19.0541 28.4083L16.9999 30.25ZM16.9999 26.425C19.2666 24.3944 21.1319 22.6531 22.5958 21.201C24.0596 19.7489 25.2166 18.4857 26.0666 17.4114C26.9166 16.3371 27.5069 15.3809 27.8374 14.5427C28.168 13.7045 28.3333 12.8722 28.3333 12.0458C28.3333 10.6292 27.861 9.44859 26.9166 8.50415C25.9721 7.55971 24.7916 7.08748 23.3749 7.08748C22.2652 7.08748 21.2381 7.40033 20.2937 8.02603C19.3492 8.65172 18.6999 9.44859 18.3458 10.4167H15.6541C15.2999 9.44859 14.6506 8.65172 13.7062 8.02603C12.7617 7.40033 11.7346 7.08748 10.6249 7.08748C9.20825 7.08748 8.0277 7.55971 7.08325 8.50415C6.13881 9.44859 5.66659 10.6292 5.66659 12.0458C5.66659 12.8722 5.83186 13.7045 6.16242 14.5427C6.49297 15.3809 7.08325 16.3371 7.93325 17.4114C8.78325 18.4857 9.9402 19.7489 11.4041 21.201C12.868 22.6531 14.7333 24.3944 16.9999 26.425Z" fill="#319163"/>
</svg>
